<?xml version="1.0" encoding="UTF-8"?><svg id="b" xmlns="http://www.w3.org/2000/svg" viewBox="0 0 256 256"><path d="m241.99,183.5c1.13-2.49,1.07-4.84-.19-7.06-1.25-2.21-3.55-4.08-6.9-5.59-6.96-3.15-11.62-2.12-13.99,3.11-.99,2.19-1.65,5.09-1.96,8.71l-5.55-2.51c.09-3.04.86-6.15,2.29-9.31,2.06-4.54,5.01-7.39,8.85-8.55,3.84-1.16,8.34-.57,13.49,1.76,3.25,1.47,5.82,3.35,7.73,5.64,1.91,2.29,3.01,4.83,3.31,7.64.3,2.8-.22,5.69-1.57,8.67-1.37,3.03-3.49,5.74-6.34,8.14l-4.41-4.57c1.08-.92,2.1-1.87,3.05-2.86.95-1,1.68-2.06,2.2-3.2Z" fill="#d36950"/><path d="m203.17,210.85c-3.21-2.81-4.97-5.86-5.29-9.14-.32-3.28.84-6.43,3.49-9.44,1.66-1.89,3.54-3.19,5.63-3.91,2.1-.72,4.26-.78,6.49-.2s4.38,1.79,6.45,3.6c3.22,2.82,4.98,5.86,5.29,9.11s-.87,6.39-3.54,9.43c-1.66,1.89-3.54,3.2-5.62,3.92-2.09.72-4.24.8-6.46.22-2.22-.58-4.36-1.77-6.43-3.58Zm11.95-13.61c-1.95-1.71-3.7-2.69-5.26-2.92-1.56-.24-2.97.37-4.24,1.81-1.26,1.43-1.67,2.9-1.23,4.4.44,1.5,1.64,3.11,3.6,4.83,1.95,1.71,3.69,2.68,5.22,2.9,1.53.22,2.93-.39,4.2-1.83,1.26-1.43,1.68-2.89,1.27-4.38s-1.6-3.09-3.56-4.81Z" fill="#d36950"/><path d="m168.93,217.9l6.09-3.75,8.02,13.03c.99,1.61,2.02,2.64,3.09,3.09,1.07.45,2.23.29,3.48-.47,1.7-1.05,2.58-2.38,2.64-3.98.06-1.6-.72-3.72-2.34-6.36l-6.46-10.5,6.09-3.75,13.73,22.32-4.65,2.86-2.58-2.35-.34.21c-.02,1.5-.45,2.89-1.3,4.17-.85,1.28-2.04,2.39-3.55,3.33-2.59,1.6-5,2.11-7.2,1.53-2.21-.58-4.13-2.19-5.76-4.84l-8.96-14.55Z" fill="#d36950"/><path d="m153.64,228.11c-1.2.36-2.55,1.05-4.07,2.08l-1.54-5.09c1.48-1.28,3.46-2.29,5.94-3.04,2.74-.83,4.94-.73,6.61.27s2.92,2.9,3.75,5.66l3.64,12.1,3.28-.99.87,2.9-3.08,3.42-.38,5.89-4.38,1.32-1.61-5.34-7.02,2.12-1.55-5.14,7.02-2.12-3.64-12.1c-.29-.97-.78-1.61-1.47-1.91-.69-.3-1.48-.31-2.38-.04Z" fill="#d36950"/><path d="m126.72,226.17l1.55,3.5h.19c1.13-1.58,2.32-2.69,3.57-3.33,1.25-.64,2.89-1.01,4.93-1.11,2.51-.12,4.52.51,6.04,1.88,1.51,1.37,2.33,3.38,2.45,6.03.13,2.78-.75,4.87-2.63,6.28-1.88,1.41-4.78,2.27-8.69,2.6l-4.54.35.05,1.15c.12,2.65,1.54,3.92,4.26,3.79,2.09-.1,4.52-.84,7.29-2.24l2.59,4.71c-2.94,1.72-6.24,2.66-9.91,2.83-3.51.16-6.24-.48-8.18-1.92-1.94-1.44-2.99-3.73-3.13-6.85l-.81-17.44,4.99-.23Zm2.67,12.03l2.76-.22c2.07-.16,3.6-.6,4.58-1.34.98-.73,1.44-1.8,1.38-3.21-.09-2.01-1.29-2.97-3.61-2.86-1.65.08-2.95.61-3.9,1.61s-1.38,2.29-1.31,3.86l.1,2.15Z" fill="#d36950"/><path d="m105,222.83c7.97,1.75,10.99,6.99,9.07,15.74-.95,4.35-2.77,7.43-5.44,9.26-2.67,1.82-6.03,2.29-10.07,1.4-2.96-.65-5.49-1.81-7.58-3.49l3.25-4.95c1,.68,1.95,1.27,2.83,1.76.88.49,1.8.84,2.75,1.05,3.63.8,6.01-1.38,7.15-6.54,1.1-5.01-.17-7.91-3.8-8.7-1.34-.29-2.63-.39-3.85-.28s-2.49.42-3.8.93l1.31-5.98c1.29-.47,2.54-.71,3.75-.74,1.21-.02,2.7.16,4.45.54Z" fill="#d36950"/><path d="m79.86,219.44c-1.13-.54-2.6-.93-4.42-1.19l2.28-4.81c1.95.04,4.1.62,6.44,1.73,2.58,1.23,4.16,2.77,4.71,4.64s.22,4.1-1.02,6.71l-5.41,11.41,3.09,1.47-1.29,2.73-4.58.47-4.23,4.11-4.13-1.96,2.39-5.04-6.63-3.14,2.3-4.85,6.63,3.14,5.41-11.41c.44-.92.5-1.72.19-2.4-.31-.68-.88-1.22-1.73-1.63Z" fill="#d36950"/><path d="m19.25,204.59l16.67-14.62c1.9-1.67,3.95-2.71,6.12-3.11,2.18-.4,4.36-.14,6.53.8,2.17.94,4.23,2.51,6.15,4.71,2.9,3.31,4.31,6.63,4.22,9.95-.09,3.32-1.61,6.27-4.56,8.86l-16.6,14.55-4.77-5.45,15.77-13.83c1.99-1.74,3.09-3.42,3.32-5.03.23-1.61-.47-3.34-2.08-5.19-1.57-1.79-3.17-2.67-4.81-2.66-1.64.01-3.46.9-5.46,2.65l-15.74,13.8-4.77-5.45Z" fill="#d36950"/><path d="m27.44,162.45c2.45-1.11,4.7-1.1,6.75.01,2.05,1.12,3.85,3.37,5.38,6.76.79,1.74,1.34,3.27,1.66,4.6s.5,2.63.52,3.91l-5.38,2.44c.02-1.47-.12-3.05-.42-4.74-.3-1.69-.72-3.11-1.24-4.26-1.07-2.36-2.29-3.23-3.66-2.61-.51.23-.86.58-1.04,1.04-.18.46-.3,1.16-.35,2.12-.06.95-.07,2.19-.03,3.72.06,2.18-.04,3.86-.3,5.01-.26,1.16-.73,2.12-1.4,2.9s-1.62,1.44-2.86,2c-2.12.96-4.13.88-6.04-.23-1.91-1.12-3.54-3.18-4.91-6.2-1.3-2.87-1.95-5.95-1.93-9.24l5.59-.17c.03,1.43.12,2.74.26,3.92.14,1.19.46,2.32.95,3.4.87,1.92,1.83,2.65,2.86,2.17.58-.26.95-.8,1.09-1.62.15-.81.17-2.46.06-4.93-.09-2.21,0-3.89.25-5.06.26-1.17.72-2.15,1.39-2.95.67-.8,1.59-1.47,2.77-2Z" fill="#d36950"/><path d="m11.49,77.99c-1.01,2.54-.83,4.89.52,7.04,1.36,2.15,3.74,3.91,7.16,5.26,7.1,2.82,11.71,1.56,13.82-3.77.89-2.24,1.4-5.17,1.54-8.79l5.67,2.25c.05,3.05-.56,6.18-1.84,9.41-1.84,4.63-4.65,7.62-8.43,8.96s-8.3.97-13.56-1.12c-3.31-1.31-5.97-3.07-7.99-5.26-2.01-2.19-3.24-4.68-3.67-7.47-.43-2.79-.05-5.7,1.16-8.73,1.23-3.09,3.21-5.91,5.94-8.44l4.63,4.36c-1.04.97-2.01,1.97-2.91,3.01-.9,1.04-1.58,2.14-2.04,3.3Z" fill="#d36950"/><path d="m48.98,48.82c3.33,2.66,5.24,5.62,5.72,8.88.48,3.26-.53,6.46-3.04,9.6-1.57,1.97-3.38,3.36-5.44,4.17-2.06.82-4.22.98-6.47.5-2.26-.48-4.46-1.58-6.61-3.29-3.35-2.67-5.25-5.62-5.72-8.84s.57-6.42,3.09-9.59c1.57-1.97,3.38-3.36,5.43-4.18,2.05-.82,4.2-1,6.45-.53,2.24.47,4.44,1.56,6.59,3.28Zm-11.3,14.17c2.03,1.62,3.83,2.51,5.4,2.67s2.95-.51,4.15-2.01c1.19-1.49,1.53-2.97,1.02-4.45-.51-1.48-1.79-3.03-3.83-4.66-2.03-1.62-3.81-2.5-5.35-2.65-1.54-.15-2.91.53-4.11,2.03-1.19,1.49-1.54,2.97-1.06,4.43.48,1.46,1.74,3.01,3.78,4.64Z" fill="#d36950"/><path d="m82.83,40.16l-5.9,4.03-8.63-12.64c-1.07-1.56-2.14-2.54-3.23-2.94-1.09-.4-2.24-.19-3.45.64-1.65,1.13-2.47,2.5-2.45,4.1.02,1.61.9,3.69,2.65,6.24l6.96,10.18-5.9,4.03-14.78-21.64,4.51-3.08,2.68,2.22.33-.22c-.06-1.49.31-2.9,1.1-4.23s1.92-2.49,3.39-3.49c2.52-1.72,4.89-2.34,7.12-1.87,2.23.47,4.23,1.99,5.98,4.56l9.64,14.11Z" fill="#d36950"/><path d="m97.63,29.22c1.18-.42,2.5-1.18,3.97-2.28l1.78,5.01c-1.41,1.35-3.34,2.45-5.79,3.32-2.7.96-4.9.97-6.61.04-1.71-.93-3.05-2.75-4.02-5.48l-4.22-11.91-3.23,1.14-1.01-2.85,2.91-3.57.1-5.9,4.31-1.53,1.86,5.26,6.92-2.45,1.79,5.06-6.92,2.45,4.22,11.91c.34.96.86,1.57,1.56,1.83.7.27,1.49.24,2.37-.07Z" fill="#d36950"/><path d="m124.58,29.88l-1.71-3.42-.19.02c-1.06,1.62-2.19,2.78-3.4,3.49-1.21.7-2.84,1.15-4.88,1.34-2.5.24-4.54-.29-6.12-1.59-1.57-1.3-2.48-3.27-2.73-5.91-.26-2.77.52-4.9,2.33-6.4,1.81-1.5,4.67-2.5,8.56-3.01l4.51-.57-.11-1.14c-.25-2.64-1.73-3.84-4.43-3.58-2.08.2-4.48,1.06-7.17,2.58l-2.81-4.58c2.85-1.85,6.11-2.95,9.77-3.3,3.5-.33,6.25.18,8.27,1.53,2.01,1.35,3.16,3.58,3.45,6.69l1.63,17.38-4.97.47Zm-3.24-11.89l-2.74.35c-2.06.26-3.57.78-4.52,1.55-.95.78-1.35,1.87-1.22,3.27.19,2.01,1.43,2.9,3.74,2.69,1.65-.16,2.92-.75,3.82-1.8.9-1.04,1.27-2.35,1.13-3.92l-.2-2.15Z" fill="#d36950"/><path d="m146.46,32.19c-8.04-1.37-11.31-6.46-9.81-15.29.75-4.39,2.41-7.56,4.99-9.51,2.58-1.95,5.91-2.57,9.99-1.88,2.99.51,5.57,1.55,7.74,3.12l-3,5.1c-1.03-.63-2-1.18-2.91-1.62-.91-.45-1.84-.75-2.79-.91-3.67-.62-5.94,1.67-6.83,6.88-.86,5.05.55,7.89,4.21,8.51,1.36.23,2.64.26,3.86.1s2.47-.54,3.75-1.11l-1.02,6.03c-1.26.53-2.5.83-3.71.92-1.21.08-2.7-.03-4.47-.33Z" fill="#d36950"/><path d="m171.75,34.37c1.15.48,2.64.81,4.47.97l-2.05,4.91c-1.95.05-4.12-.42-6.52-1.42-2.64-1.1-4.28-2.57-4.93-4.41s-.42-4.09.7-6.76l4.86-11.66-3.16-1.32,1.16-2.79,4.55-.69,4.03-4.31,4.22,1.76-2.15,5.15,6.77,2.82-2.07,4.95-6.77-2.82-4.86,11.66c-.39.94-.42,1.74-.08,2.41.34.67.94,1.18,1.81,1.54Z" fill="#d36950"/><path d="m232.99,46.33l-15.96,15.39c-1.82,1.76-3.81,2.89-5.97,3.4-2.16.51-4.35.34-6.56-.49-2.22-.84-4.34-2.31-6.37-4.41-3.06-3.17-4.62-6.42-4.69-9.74s1.31-6.34,4.14-9.07l15.89-15.32,5.03,5.21-15.1,14.56c-1.9,1.83-2.93,3.56-3.08,5.18-.15,1.62.62,3.32,2.33,5.08,1.65,1.71,3.29,2.52,4.93,2.43,1.64-.09,3.41-1.06,5.32-2.9l15.07-14.53,5.03,5.21Z" fill="#d36950"/><path d="m226.81,88.83c-2.39,1.23-4.64,1.33-6.74.31s-4-3.19-5.7-6.5c-.87-1.7-1.5-3.2-1.88-4.52s-.62-2.61-.71-3.88l5.26-2.69c.05,1.47.26,3.04.65,4.71.38,1.67.86,3.07,1.44,4.2,1.18,2.31,2.44,3.12,3.78,2.44.5-.26.83-.62.99-1.08.16-.47.24-1.18.25-2.13s-.04-2.19-.15-3.71c-.17-2.18-.15-3.85.06-5.02.21-1.17.63-2.16,1.26-2.96.63-.81,1.55-1.52,2.76-2.14,2.07-1.06,4.09-1.08,6.04-.05,1.96,1.03,3.69,3.01,5.2,5.96,1.44,2.81,2.23,5.86,2.36,9.14l-5.57.43c-.1-1.42-.25-2.73-.45-3.91s-.57-2.3-1.11-3.35c-.96-1.88-1.95-2.56-2.96-2.04-.57.29-.91.85-1.02,1.67-.11.82-.05,2.46.18,4.93.2,2.2.19,3.89-.01,5.06s-.62,2.18-1.25,3.01c-.63.83-1.52,1.54-2.67,2.13Z" fill="#d36950"/></svg>