<?xml version="1.0" encoding="UTF-8"?><svg id="b" xmlns="http://www.w3.org/2000/svg" viewBox="0 0 256 256"><path d="m85.72,167.8c-1.99,0-3.73-.75-5.22-2.24-1.49-1.49-2.24-3.23-2.24-5.22v-64.67c0-1.99.75-3.73,2.24-5.22,1.49-1.49,3.23-2.24,5.22-2.24h84.57c1.99,0,3.73.75,5.22,2.24,1.49,1.49,2.24,3.23,2.24,5.22v64.67c0,1.99-.75,3.73-2.24,5.22-1.49,1.49-3.23,2.24-5.22,2.24h-84.57Zm84.57-65.29l-40.29,26.36c-.33.17-.64.31-.93.44-.29.12-.64.19-1.06.19s-.77-.06-1.06-.19c-.29-.12-.6-.27-.93-.44l-40.29-26.36v57.83h84.57v-57.83Zm-42.28,20.27l41.79-27.11h-83.45l41.66,27.11Zm-42.28-20.27v.87-4.91.06-2.86,2.86-.12,4.97-.87,57.83-57.83Z" fill="#d36950"/></svg>